<svg width="63" height="63" viewBox="0 0 63 63" fill="none" xmlns="http://www.w3.org/2000/svg">
<circle cx="31.5" cy="31.5" r="31.5" fill="#F5F7F9"/>
<path d="M33.907 16.5967C33.6894 16.4189 33.4387 16.286 33.1694 16.2057C32.9001 16.1254 32.6175 16.0993 32.3381 16.129C32.0586 16.1586 31.7879 16.2434 31.5414 16.3784C31.2949 16.5134 31.0777 16.696 30.9022 16.9155L24.7483 24.625H27.4682L32.5619 18.2415L34.1981 19.5781L30.0969 24.625H32.8339L35.845 20.919L39.4958 23.9004L38.8625 24.625H39.5C40.1337 24.6243 40.764 24.7181 41.37 24.9034C41.6015 24.4691 41.6751 23.9679 41.5782 23.4854C41.4813 23.0029 41.22 22.569 40.8388 22.2577L33.907 16.5967ZM20.375 25.6875C20.375 25.4057 20.4869 25.1354 20.6862 24.9362C20.8855 24.7369 21.1557 24.625 21.4375 24.625H22.6233L24.3126 22.5H21.4375C20.5921 22.5 19.7814 22.8358 19.1836 23.4336C18.5858 24.0314 18.25 24.8421 18.25 25.6875V38.4375C18.25 39.8464 18.8097 41.1977 19.806 42.194C20.8023 43.1903 22.1535 43.75 23.5625 43.75H39.5C40.6272 43.75 41.7082 43.3022 42.5052 42.5052C43.3022 41.7082 43.75 40.6272 43.75 39.5V31C43.75 29.8728 43.3022 28.7918 42.5052 27.9948C41.7082 27.1978 40.6272 26.75 39.5 26.75H21.4375C21.1557 26.75 20.8855 26.638 20.6862 26.4388C20.4869 26.2395 20.375 25.9693 20.375 25.6875ZM36.3125 35.25H38.4375C38.7193 35.25 38.9895 35.3619 39.1888 35.5612C39.3881 35.7604 39.5 36.0307 39.5 36.3125C39.5 36.5943 39.3881 36.8645 39.1888 37.0638C38.9895 37.263 38.7193 37.375 38.4375 37.375H36.3125C36.0307 37.375 35.7605 37.263 35.5612 37.0638C35.3619 36.8645 35.25 36.5943 35.25 36.3125C35.25 36.0307 35.3619 35.7604 35.5612 35.5612C35.7605 35.3619 36.0307 35.25 36.3125 35.25Z" fill="#2D2D2D"/>
</svg>
