<svg width="63" height="63" viewBox="0 0 63 63" fill="none" xmlns="http://www.w3.org/2000/svg">
<circle cx="31.5" cy="31.5" r="31.5" fill="#F5F7F9"/>
<g clip-path="url(#clip0_105_424)">
<path d="M45.5217 21.0542C45.2245 20.2371 44.752 19.4951 44.1372 18.8803C43.5224 18.2656 42.7804 17.793 41.9633 17.4959C40.435 17.0059 39.0467 17.0059 36.2233 17.0059H27.7533C24.9533 17.0059 23.5417 17.0059 22.0367 17.4725C21.2184 17.7709 20.4756 18.2452 19.8608 18.8621C19.2459 19.479 18.774 20.2233 18.4783 21.0425C18 22.5592 18 23.9592 18 26.7592V35.2409C18 38.0525 18 39.4409 18.4667 40.9575C18.7638 41.7746 19.2364 42.5166 19.8511 43.1314C20.4659 43.7462 21.2079 44.2187 22.025 44.5159C23.5417 44.9942 24.9417 44.9942 27.7417 44.9942H36.235C39.0467 44.9942 40.4467 44.9942 41.9517 44.5275C42.7721 44.2306 43.5172 43.7569 44.1341 43.14C44.751 42.523 45.2247 41.7779 45.5217 40.9575C46 39.4409 46 38.0409 46 35.2409V26.7825C46 23.9709 46 22.5709 45.5217 21.0542ZM38.3233 26.4559L37.2383 27.5409C37.1326 27.6392 36.9941 27.6948 36.8497 27.697C36.7054 27.6992 36.5653 27.6477 36.4567 27.5525C35.4059 26.6651 34.0754 26.1775 32.7 26.1759C31.5683 26.1759 30.4367 26.5492 30.4367 27.5875C30.4367 28.6375 31.65 28.9875 33.05 29.5125C35.5 30.3292 37.53 31.3559 37.53 33.7592C37.53 36.3725 35.5 38.1692 32.1867 38.3675L31.8833 39.7675C31.8565 39.8962 31.7862 40.0117 31.6842 40.0945C31.5822 40.1774 31.4548 40.2226 31.3233 40.2225H29.235L29.13 40.2109C28.9805 40.1773 28.8502 40.0863 28.7673 39.9575C28.6843 39.8287 28.6554 39.6725 28.6867 39.5225L29.0133 38.0409C27.7559 37.7256 26.5995 37.0953 25.6533 36.2092V36.1975C25.6011 36.1455 25.5597 36.0837 25.5314 36.0156C25.5032 35.9475 25.4886 35.8746 25.4886 35.8009C25.4886 35.7272 25.5032 35.6542 25.5314 35.5861C25.5597 35.518 25.6011 35.4562 25.6533 35.4042L26.82 34.2725C26.9259 34.1733 27.0657 34.1181 27.2108 34.1181C27.356 34.1181 27.4957 34.1733 27.6017 34.2725C28.6633 35.2759 30.0867 35.8359 31.5567 35.8125C33.0733 35.8125 34.0883 35.1709 34.0883 34.1559C34.0883 33.1409 33.0617 32.8725 31.125 32.1492C29.0717 31.4142 27.1233 30.3759 27.1233 27.9492C27.1233 25.1259 29.4683 23.7492 32.245 23.6209L32.5367 22.1859C32.5638 22.0583 32.6346 21.9443 32.7368 21.8633C32.839 21.7824 32.9663 21.7397 33.0967 21.7425H35.1733L35.29 21.7542C35.5933 21.8242 35.7917 22.1159 35.7217 22.4192L35.4067 24.0175C36.4567 24.3675 37.4483 24.9159 38.3 25.6392L38.3233 25.6625C38.545 25.8959 38.545 26.2459 38.3233 26.4559Z" fill="black"/>
</g>
<defs>
<clipPath id="clip0_105_424">
<rect width="28" height="28" fill="white" transform="translate(18 17)"/>
</clipPath>
</defs>
</svg>
