<svg width="63" height="63" viewBox="0 0 63 63" fill="none" xmlns="http://www.w3.org/2000/svg">
<circle cx="31.5" cy="31.5" r="31.5" fill="#3A552C"/>
<g clip-path="url(#clip0_102_422)">
<path d="M40.75 24H22.57C22.3529 24.042 22.1291 24.0355 21.9148 23.9809C21.7005 23.9264 21.5009 23.8251 21.3303 23.6843C21.1597 23.5435 21.0224 23.3668 20.9281 23.1667C20.8338 22.9666 20.785 22.7482 20.785 22.527V22.4985L40 21.75V19.965C40.0313 19.6987 40.0017 19.4287 39.9134 19.1755C39.8251 18.9223 39.6805 18.6925 39.4904 18.5034C39.3002 18.3143 39.0696 18.1708 38.8159 18.0839C38.5623 17.9969 38.2922 17.9688 38.026 18.0015L20.965 20.775C20.3892 20.9876 19.8923 21.3713 19.541 21.8746C19.1897 22.378 19.0009 22.9767 19 23.5905V39.7485C19 40.3453 19.2371 40.9176 19.659 41.3395C20.081 41.7615 20.6533 41.9985 21.25 41.9985H40.75C41.3467 41.9985 41.919 41.7615 42.341 41.3395C42.7629 40.9176 43 40.3453 43 39.7485V26.2335L43.0015 26.172C43.0015 25.5952 42.7723 25.042 42.3645 24.6341C41.9566 24.2262 41.4033 23.997 40.8265 23.997L40.747 23.9985L40.75 24ZM38.5 34.5C37.9031 34.4998 37.3307 34.2625 36.9087 33.8403C36.4867 33.418 36.2498 32.8455 36.25 32.2485C36.2502 31.6516 36.4875 31.0792 36.9098 30.6572C37.332 30.2353 37.9046 29.9983 38.5015 29.9985C38.7971 29.9986 39.0897 30.0569 39.3628 30.1701C39.6358 30.2833 39.8839 30.4492 40.0928 30.6583C40.3017 30.8674 40.4674 31.1155 40.5805 31.3886C40.6935 31.6618 40.7516 31.9545 40.7515 32.25C40.7514 32.5456 40.6931 32.8383 40.5799 33.1113C40.4667 33.3843 40.3008 33.6324 40.0917 33.8413C39.8827 34.0503 39.6345 34.216 39.3614 34.329C39.0883 34.442 38.7956 34.5001 38.5 34.5Z" fill="#6FFC2D"/>
</g>
<defs>
<clipPath id="clip0_102_422">
<rect width="24" height="24" fill="white" transform="translate(19 18)"/>
</clipPath>
</defs>
</svg>
